<?xml version="1.0" standalone="no"?>
<!DOCTYPE svg PUBLIC "-//W3C//DTD SVG 20010904//EN"
 "http://www.w3.org/TR/2001/REC-SVG-20010904/DTD/svg10.dtd">
<svg version="1.0" xmlns="http://www.w3.org/2000/svg"
 width="300.000000pt" height="451.000000pt" viewBox="0 0 300.000000 451.000000"
 preserveAspectRatio="xMidYMid meet">
<metadata>
Created by potrace 1.10, written by Peter Selinger 2001-2011
</metadata>
<g transform="translate(0.000000,451.000000) scale(0.050000,-0.050000)"
fill="#b509ac" stroke="none">
<path d="M460 8990 c-14 -16 -36 -30 -50 -30 -14 0 -32 -15 -39 -34 -10 -28
-17 -29 -30 -8 -11 18 -20 20 -30 4 -17 -27 -91 -29 -91 -2 0 11 20 21 45 22
43 2 43 3 -5 17 -56 16 -100 6 -100 -22 0 -11 9 -14 20 -7 11 7 20 -8 20 -34
1 -69 204 -167 246 -119 26 31 114 211 114 233 0 23 -77 8 -100 -20z"/>
<path d="M1283 8300 c-2 -16 -20 -51 -41 -78 l-36 -47 -14 52 c-16 67 -39 67
-69 2 -13 -28 -32 -46 -42 -40 -10 7 -29 -6 -41 -28 -29 -56 -80 -54 -65 2 10
37 5 42 -33 32 -33 -9 -48 -1 -60 31 -21 57 -72 -17 -94 -136 -8 -44 -26 -99
-41 -122 -28 -43 -18 -159 16 -180 9 -6 17 -20 17 -32 0 -12 -22 2 -50 32 -27
30 -50 59 -50 65 0 6 -13 39 -28 74 -16 35 -38 90 -49 123 l-20 60 -1 -70 c0
-38 11 -102 25 -142 26 -70 11 -169 -22 -153 -106 50 -137 68 -149 84 -7 11
-24 -7 -36 -40 -29 -76 -8 -229 31 -229 37 0 37 -55 0 -91 -38 -39 -71 -37
-71 5 0 18 -19 54 -42 79 -55 58 -110 17 -89 -66 10 -42 7 -50 -18 -40 -17 6
-31 1 -31 -11 0 -38 62 -94 92 -83 36 15 36 -33 -1 -85 -21 -31 -44 -39 -90
-32 -37 5 -61 0 -61 -14 0 -12 12 -22 27 -22 33 0 56 -95 39 -162 -12 -48 -12
-48 40 7 68 71 81 69 66 -10 -7 -36 -13 -83 -13 -105 0 -22 -9 -64 -21 -93
-16 -40 -14 -74 10 -143 20 -59 30 -163 30 -307 -1 -119 10 -271 22 -337 24
-122 28 -182 22 -360 -5 -166 27 -718 44 -744 9 -15 -1 -32 -26 -46 -30 -16
-39 -16 -35 2 10 47 -109 92 -220 83 l-105 -9 0 -195 0 -195 205 56 c113 31
212 57 220 57 32 2 14 -552 -46 -1419 -21 -306 -29 -354 -64 -385 -50 -45 -90
-45 -101 0 -7 27 -10 25 -12 -9 -2 -45 -115 -166 -155 -166 -33 0 -52 -63 -27
-88 35 -35 200 -28 195 8 -4 21 11 29 49 26 41 -2 51 4 42 27 -9 23 0 29 35
24 32 -5 54 6 68 35 36 71 100 127 82 72 -7 -24 -7 -44 2 -44 21 0 107 101
107 126 0 11 16 7 35 -8 31 -25 53 -29 110 -20 7 1 5 26 -6 54 -16 43 -14 50
9 42 17 -7 32 4 38 27 14 51 54 50 44 -1 -4 -22 7 -48 26 -59 31 -18 30 -20
-6 -22 -22 -1 -29 -7 -15 -12 34 -14 31 -38 -10 -79 -30 -31 -31 -34 -2 -23
28 10 31 -2 23 -99 -7 -78 -4 -107 12 -97 14 9 21 -9 20 -53 -2 -36 -7 -50
-12 -31 -5 19 -18 35 -30 35 -11 0 -15 -14 -8 -32 7 -17 12 -39 12 -49 0 -10
11 -13 25 -8 18 7 25 -22 26 -106 1 -166 29 -383 51 -396 10 -6 18 -38 18 -70
0 -33 8 -59 17 -59 10 0 15 -23 12 -50 -3 -28 3 -45 13 -39 10 6 19 -5 21 -25
2 -20 4 -47 5 -61 1 -13 17 -41 35 -62 18 -22 39 -58 47 -83 23 -74 134 -240
153 -228 9 6 9 25 -1 44 -118 223 -232 529 -214 576 6 16 -1 50 -17 74 -15 24
-33 76 -40 114 -40 245 -53 395 -48 554 5 138 1 179 -18 171 -33 -12 -12 145
38 293 57 168 47 173 -91 47 -40 -37 -72 -57 -72 -47 0 44 -137 -12 -221 -90
-116 -108 -204 -30 -96 85 28 30 39 62 32 95 -5 30 -1 46 10 39 12 -8 14 20 5
73 -9 54 -7 81 5 73 13 -8 14 21 2 80 -9 51 -12 118 -6 150 5 32 1 75 -10 95
-34 64 -42 428 -9 400 15 -13 28 -44 28 -69 0 -26 8 -51 17 -57 9 -6 38 -67
62 -135 25 -68 53 -133 63 -145 10 -12 49 -62 87 -112 39 -49 100 -128 136
-174 36 -47 75 -85 88 -85 54 -2 65 -175 15 -251 -44 -67 -32 -131 16 -84 18
19 44 34 57 34 14 0 19 17 12 46 -21 85 56 127 119 64 27 -27 43 -50 34 -50
-9 -1 13 -20 49 -43 50 -31 72 -36 93 -19 20 17 33 15 51 -6 13 -16 39 -28 57
-27 19 1 59 -4 89 -12 47 -12 59 -6 73 32 20 53 7 100 -23 82 -13 -8 -15 -4
-7 10 8 13 22 19 31 13 26 -16 43 50 23 86 -16 28 -22 25 -44 -21 -31 -69 -49
-69 -75 0 -13 36 -20 43 -21 19 -1 -23 -15 -34 -37 -30 -23 4 -35 -7 -35 -32
0 -21 -13 -43 -28 -48 -20 -7 -25 7 -18 53 5 37 0 63 -12 63 -12 0 -10 8 5 18
29 18 24 118 -5 102 -10 -5 -20 -45 -23 -88 -8 -99 -42 -137 -60 -66 -14 56
-60 54 -76 -3 -4 -18 -9 6 -11 53 -1 53 10 99 28 117 38 38 38 60 -1 60 -17 0
-26 -11 -21 -26 6 -15 1 -24 -12 -22 -12 3 -26 -26 -31 -65 -10 -85 -25 -106
-25 -36 0 28 -13 62 -30 76 -21 17 -24 34 -10 59 14 27 7 46 -29 80 -44 42
-48 42 -57 8 -8 -30 -10 -29 -12 8 -1 29 9 45 30 45 17 0 27 11 23 25 -5 14 9
40 30 59 37 33 36 34 -33 47 -63 12 -72 21 -72 70 0 78 -29 89 -70 26 -31 -46
-31 -52 -3 -41 17 7 37 4 44 -7 6 -10 -3 -19 -20 -19 -17 0 -31 -9 -31 -21 0
-11 -13 -25 -30 -32 -36 -14 -129 70 -130 117 0 18 -9 39 -20 46 -11 7 -20 38
-20 70 0 72 -19 123 -41 109 -21 -12 -83 100 -65 118 6 7 -3 18 -21 25 -48 18
-40 68 10 68 40 0 42 7 30 110 -9 76 -6 110 9 110 17 0 17 7 1 27 -13 15 -16
33 -8 41 7 8 5 20 -6 28 -18 13 -55 84 -106 204 -117 274 -67 571 97 584 35 3
67 11 72 20 5 8 36 9 68 3 85 -17 280 64 280 117 0 21 -7 35 -15 30 -81 -46
-171 -76 -197 -66 -18 7 -45 3 -60 -10 -21 -17 -30 -15 -40 10 -7 17 -22 26
-35 19 -13 -7 -11 0 3 15 14 15 35 29 45 31 10 1 28 3 40 5 11 1 2 22 -20 46
-53 56 -52 86 4 125 43 30 46 29 65 -16 34 -81 70 -113 107 -94 18 9 57 26 85
37 68 27 91 136 35 166 -31 16 -37 12 -37 -26 0 -25 -8 -58 -18 -73 -25 -40
-49 8 -34 68 14 55 -20 65 -91 27 -30 -16 -47 -16 -63 0 -56 56 -221 -49 -257
-163 -20 -64 -32 -75 -80 -75 -104 0 -62 177 71 296 40 36 68 75 61 85 -6 10
-4 20 5 20 141 11 217 25 223 41 4 13 15 13 32 -1 13 -11 64 -25 113 -31 117
-15 158 -28 158 -53 0 -12 -14 -16 -32 -9 -49 19 -23 -35 28 -58 51 -23 58
-50 13 -50 -17 0 -26 -9 -19 -20 7 -12 20 -16 29 -10 27 16 42 -50 21 -90 -26
-48 -25 -66 1 -49 15 9 18 -14 9 -69 -7 -52 -4 -82 9 -82 33 0 25 -52 -21
-133 -31 -56 -39 -94 -30 -150 8 -46 1 -109 -18 -161 -16 -47 -30 -110 -30
-139 0 -28 -13 -84 -30 -124 -51 -121 -37 -142 41 -64 67 67 149 95 149 50 0
-42 -66 -119 -103 -119 -21 0 -43 -13 -49 -29 -6 -16 -22 -25 -35 -20 -35 13
-62 -12 -129 -121 -113 -185 -117 -462 -4 -360 18 16 39 25 45 18 7 -7 7 7 1
30 -12 48 46 149 75 131 10 -6 19 2 19 18 0 72 70 188 97 160 21 -24 33 -22
77 13 28 22 69 40 91 40 21 0 62 18 90 40 28 22 63 40 78 40 15 0 27 10 27 21
0 12 -9 16 -20 9 -11 -7 -20 2 -20 20 0 18 9 27 20 20 61 -38 11 102 -67 186
-55 59 -92 121 -101 165 -7 40 -30 91 -52 115 -54 58 -50 108 20 256 55 118
130 404 110 424 -16 17 31 84 58 84 15 0 31 27 36 60 10 68 -15 81 -34 18 -8
-22 -18 -36 -24 -31 -6 6 4 39 22 75 49 98 36 154 -22 96 -32 -32 -166 -41
-167 -12 -1 13 -10 6 -19 -16 -9 -22 -18 -28 -19 -13 -2 40 -120 183 -150 183
-14 0 -41 -20 -58 -45 -28 -39 -35 -41 -51 -14 -34 54 -239 15 -339 -63 -26
-21 -56 -32 -66 -26 -30 19 -97 -13 -97 -47 0 -17 -5 -26 -12 -20 -6 6 -29 -6
-50 -27 -82 -82 -97 44 -26 214 16 37 28 99 28 138 0 39 9 88 20 110 11 22 28
57 38 77 25 50 -4 351 -38 393 -15 18 -30 145 -20 170 2 6 8 36 13 68 11 69
42 133 63 129 60 -9 82 33 34 68 -12 8 -6 15 13 15 17 0 44 15 60 33 36 45
-89 -19 -150 -75 -49 -46 -80 -23 -62 47 13 55 109 158 109 118 0 -12 10 -23
22 -23 12 0 18 12 12 28 -6 15 0 38 12 50 27 27 -12 61 -69 62 -32 0 -93 131
-71 152 19 19 114 -17 114 -43 0 -15 14 -35 31 -44 17 -10 38 -44 46 -76 11
-41 29 -59 57 -60 23 0 54 -11 70 -24 23 -19 38 -17 70 14 40 37 42 37 98 -1
45 -29 50 -38 21 -38 -57 0 -27 -49 38 -60 34 -6 74 -34 98 -70 23 -33 54 -60
71 -60 16 0 31 -16 33 -35 2 -22 -1 -25 -6 -7 -7 22 -22 16 -63 -25 -54 -54
-125 -63 -177 -20 -33 27 -107 38 -109 16 -2 -11 -5 -30 -6 -44 -2 -14 -15
-23 -28 -20 -13 3 -24 -4 -24 -16 0 -14 -12 -14 -39 0 -54 29 -67 26 -53 -12
7 -17 1 -47 -13 -65 -22 -28 -21 -29 8 -6 23 17 38 19 46 5 22 -35 -5 -56 -59
-46 -39 8 -48 3 -39 -21 8 -19 -3 -35 -29 -43 -50 -16 -73 -83 -42 -121 27
-33 39 -170 15 -170 -8 0 -15 -10 -15 -22 0 -35 61 23 82 77 10 26 26 42 36
36 22 -14 73 106 52 125 -9 8 -20 3 -24 -11 -5 -14 -18 -20 -29 -13 -31 19 20
65 61 54 22 -6 48 6 65 29 26 36 84 70 127 75 11 1 61 23 110 47 65 33 136 48
256 54 139 7 176 16 232 58 36 28 70 46 76 40 6 -6 27 14 46 44 33 50 37 51
61 19 24 -33 27 -32 51 11 53 101 131 130 83 32 -12 -25 -34 -81 -49 -125 -14
-44 -33 -85 -41 -91 -24 -18 -38 -243 -15 -229 44 27 17 -70 -30 -106 -28 -22
-50 -51 -50 -64 0 -13 -17 -39 -38 -57 -35 -30 -35 -39 -9 -99 l28 -67 84 62
c91 67 120 76 111 32 -3 -15 3 -29 14 -30 11 0 20 10 20 24 0 14 18 25 40 26
70 2 124 43 95 72 -20 20 -25 20 -25 -1 0 -17 -12 -21 -35 -11 -19 8 -57 14
-85 13 -45 -1 -46 0 -10 15 22 8 54 11 70 6 19 -5 22 -3 8 8 -11 9 -31 58 -43
107 l-23 90 9 -87 c6 -62 1 -84 -16 -78 -14 4 -28 34 -32 67 -3 32 -14 67 -25
77 -63 65 -8 132 58 70 40 -37 44 -38 44 -5 0 20 6 59 13 86 12 49 11 49 -20
10 -31 -39 -32 -39 -33 10 0 28 -6 70 -13 95 -13 50 60 68 81 20 7 -17 21 -11
44 20 43 59 65 57 53 -5 -6 -29 0 -50 13 -50 29 0 28 86 -2 116 -17 17 -30 17
-49 1 -44 -36 -55 32 -16 92 42 64 109 105 110 67 0 -16 12 -10 30 13 33 44
39 27 9 -28 -15 -29 -11 -39 23 -47 59 -16 34 -65 -31 -60 -32 2 -48 -4 -40
-17 7 -12 38 -17 70 -12 31 4 60 -2 65 -14 5 -13 29 -8 68 14 71 41 129 46
122 10 -15 -91 94 -182 124 -102 16 42 25 47 49 27 16 -14 25 -32 19 -41 -5
-9 -2 -21 8 -27 10 -7 24 9 31 33 13 45 13 45 43 5 17 -22 48 -37 70 -34 21 4
39 -2 39 -12 0 -10 22 -42 49 -71 26 -29 40 -57 30 -64 -11 -6 -19 -36 -19
-65 l0 -54 32 60 c17 33 27 84 23 114 -4 30 0 49 9 44 9 -6 16 4 16 21 0 17
14 31 30 31 38 0 38 -15 -2 -55 -22 -22 -29 -58 -25 -118 7 -87 -11 -117 -31
-52 -6 19 -6 -1 1 -45 6 -44 11 -100 11 -125 0 -25 8 -45 18 -45 10 0 18 -16
18 -36 0 -20 8 -45 18 -55 11 -10 22 -46 25 -78 5 -43 31 -77 97 -125 166
-122 204 -177 295 -426 189 -523 209 -969 53 -1221 -37 -60 -40 -76 -17 -107
24 -33 28 -29 40 37 19 103 56 59 44 -52 -21 -183 -52 -265 -122 -321 -36 -28
-39 -41 -20 -72 14 -23 17 -48 5 -66 -15 -24 -18 -23 -19 2 -1 17 -19 -27 -41
-96 -22 -69 -48 -120 -59 -113 -10 6 -19 -3 -19 -20 0 -17 -27 -69 -60 -114
-33 -46 -60 -90 -60 -98 0 -31 -122 -137 -146 -128 -13 5 -33 -10 -44 -34 -24
-54 -70 -72 -70 -29 0 18 9 32 20 32 11 0 20 23 20 50 0 62 -39 67 -42 5 -2
-37 -4 -38 -12 -8 -5 21 0 47 12 59 12 12 22 40 21 63 0 38 -2 38 -26 7 -19
-25 -33 -28 -48 -13 -15 15 -25 9 -34 -21 -8 -24 -22 -37 -32 -31 -24 15 -24
-15 0 -79 11 -28 12 -55 2 -61 -9 -6 -23 30 -30 79 -7 50 -24 90 -37 90 -31 1
-119 136 -104 161 7 10 3 35 -8 54 -30 54 -49 -13 -23 -82 22 -59 1 -70 -46
-23 -71 71 -77 -63 -5 -139 47 -51 112 -53 112 -4 0 13 9 10 20 -7 14 -21 10
-37 -13 -54 -23 -18 -27 -32 -13 -50 11 -14 22 -39 23 -56 2 -16 7 -66 12
-110 5 -44 4 -64 -2 -44 -5 20 -23 60 -39 90 l-28 54 -2 -50 -2 -50 -16 50
c-11 33 -17 38 -18 15 -1 -19 0 -39 3 -43 3 -4 -12 -26 -32 -49 -22 -24 -31
-51 -22 -67 9 -14 8 -19 -1 -11 -9 8 -26 -5 -38 -29 -35 -69 -72 -68 -72 2 0
34 8 62 18 62 10 0 14 -18 8 -40 -6 -22 -1 -40 12 -40 40 0 22 69 -31 119
l-51 49 7 -104 c4 -57 0 -104 -8 -104 -8 0 -15 -15 -15 -33 0 -19 -4 -29 -10
-24 -12 12 22 294 42 346 10 26 8 33 -9 23 -12 -8 -23 -4 -23 8 0 13 -11 19
-25 14 -14 -5 -41 0 -61 10 -34 17 -34 15 -8 -38 33 -63 56 -286 31 -286 -10
0 -17 14 -17 30 0 51 -33 33 -66 -35 -60 -124 -63 102 -4 316 3 12 -11 43 -32
70 -20 27 -37 37 -38 23 0 -15 -9 -21 -20 -14 -27 17 -25 -3 4 -56 29 -51 38
-231 13 -246 -10 -6 -12 -19 -6 -29 6 -11 -3 -19 -20 -19 -17 0 -32 16 -33 35
-1 19 -9 8 -19 -24 -10 -32 -13 -63 -8 -68 5 -5 9 1 9 14 0 13 9 23 21 23 27
0 12 -155 -18 -185 -16 -16 -23 -17 -23 -1 0 13 -18 18 -43 11 -35 -9 -41 -5
-30 23 7 20 13 39 13 43 0 4 14 3 30 -4 33 -12 43 43 11 62 -11 7 -8 48 9 104
24 80 24 104 -1 175 -16 45 -29 97 -29 115 0 44 -63 97 -75 62 -11 -34 -45
-32 -45 4 0 69 -40 46 -52 -30 -9 -53 -19 -73 -30 -56 -11 18 -22 8 -38 -34
-17 -44 -17 -68 -1 -95 13 -20 18 -52 12 -70 -5 -19 -1 -47 9 -64 15 -24 20
-20 20 20 l1 50 27 -48 c17 -31 31 -39 40 -25 8 13 10 30 5 38 -5 9 4 33 21
55 30 39 30 38 19 -10 -13 -60 -32 -225 -19 -175 16 63 58 38 60 -35 2 -73
-11 -85 -48 -48 -15 15 -30 9 -51 -21 -28 -40 -30 -38 -32 51 -2 103 -22 149
-25 56 -1 -66 -8 -104 -28 -167 -13 -40 -10 -42 29 -21 33 17 50 17 71 0 16
-13 38 -18 49 -11 12 8 31 7 44 -1 34 -21 239 -27 226 -7 -6 10 17 14 51 9 34
-4 86 5 116 20 30 15 125 57 212 94 101 42 173 86 200 123 23 31 88 78 145
104 57 26 136 79 175 118 39 39 80 71 91 71 11 0 30 19 43 43 12 24 44 63 70
87 27 25 48 60 48 78 0 19 23 58 50 88 28 29 50 61 50 70 0 9 13 30 29 46 16
16 24 42 18 59 -6 16 3 59 20 95 17 36 36 87 42 114 6 28 20 91 32 140 12 50
29 122 38 160 14 59 17 48 19 -75 1 -80 -6 -145 -17 -145 -10 0 -16 -65 -12
-150 l6 -150 102 -96 c114 -106 120 -130 74 -302 -16 -60 -35 -195 -42 -300
-20 -315 -102 -551 -292 -844 -37 -57 -67 -109 -67 -116 0 -19 -58 -96 -75
-99 -8 -2 -21 -3 -27 -3 -7 0 -2 -13 11 -28 14 -18 16 -33 3 -41 -11 -6 -19
-45 -19 -86 0 -73 -21 -122 -204 -463 -43 -81 -79 -163 -79 -181 0 -18 -13
-51 -29 -72 -17 -22 -30 -55 -30 -74 -1 -19 -10 -35 -21 -35 -11 0 -20 -13
-20 -28 0 -16 -11 -33 -25 -39 -19 -7 -18 -15 5 -31 26 -18 25 -21 -7 -22 -20
0 -41 -18 -47 -40 -6 -22 -19 -40 -30 -40 -10 0 -13 -9 -7 -19 13 -21 -173
-214 -345 -359 -57 -48 -103 -102 -102 -120 1 -20 5 -23 11 -8 7 19 19 19 46
2 29 -18 44 -16 70 10 19 19 43 34 55 34 13 0 11 12 -4 30 -21 26 -20 29 6 19
17 -7 36 -25 42 -41 9 -24 17 -23 51 6 29 25 34 40 18 60 -16 19 -16 26 1 26
12 0 22 10 22 22 0 22 79 96 104 97 8 1 10 -11 5 -26 -6 -15 2 -26 19 -26 17
0 26 7 21 15 -6 9 6 25 26 36 19 12 24 21 10 21 -30 1 -34 81 -4 81 12 0 16
-9 9 -20 -7 -11 -2 -20 11 -20 13 0 18 14 11 31 -21 56 21 104 82 96 31 -4 45
-2 31 5 -40 18 -29 68 15 68 25 0 40 13 40 35 -1 27 -4 29 -18 8 -40 -64 -46
23 -7 117 14 35 13 54 -3 65 -13 8 -14 15 -2 17 11 1 29 5 40 7 11 3 34 6 50
8 24 3 25 7 3 21 -31 19 -22 128 15 198 27 51 52 60 34 12 -15 -39 6 -128 30
-128 10 0 18 37 18 83 0 55 12 91 35 109 33 25 33 27 -5 29 -40 2 -40 2 0 19
22 9 29 18 15 19 -37 2 -31 41 6 41 17 0 26 8 20 18 -6 10 3 23 20 29 20 8 27
30 20 64 -7 41 -2 50 21 41 20 -8 25 -4 15 13 -28 43 -30 118 -5 148 15 17 29
21 37 9 19 -31 56 3 72 66 11 41 8 54 -8 44 -13 -8 -23 -27 -23 -43 0 -16 -9
-29 -20 -29 -39 0 7 158 58 200 11 9 36 50 81 135 10 19 23 51 29 71 9 29 19
32 52 14 41 -22 59 6 20 30 -32 20 -23 56 10 43 18 -7 30 -1 30 15 0 15 14 33
30 39 17 7 30 22 30 34 0 12 -9 16 -20 9 -34 -21 -22 7 20 46 25 23 44 72 50
126 13 134 32 240 50 287 19 50 3 155 -21 140 -9 -5 -8 20 2 55 11 36 19 100
19 142 0 66 5 75 38 65 50 -16 77 79 35 126 -33 38 -89 512 -108 910 l-11 257
48 -7 c38 -6 54 7 77 58 20 46 41 65 75 65 28 0 46 12 46 30 0 17 -18 30 -40
30 -25 0 -40 13 -40 37 0 50 21 67 53 40 22 -18 27 -6 27 61 0 69 -6 83 -35
78 -42 -7 -50 63 -11 94 18 15 20 41 7 99 -10 43 -14 86 -9 95 6 9 0 16 -12
16 -14 0 -11 12 7 30 32 32 236 85 587 153 350 67 361 69 716 145 485 103 715
154 755 165 23 6 35 29 35 67 0 54 -22 65 -70 37 -11 -6 -53 -11 -93 -11 -40
0 -100 -11 -133 -24 -34 -14 -77 -22 -97 -17 -27 6 -17 17 41 42 74 32 113 42
272 71 61 11 71 21 76 76 6 64 6 64 -60 43 -36 -12 -158 -47 -271 -79 -113
-32 -221 -66 -240 -76 -108 -55 -147 -66 -194 -57 -28 5 -99 -2 -156 -17 -58
-14 -267 -66 -465 -116 -198 -49 -387 -99 -419 -112 -45 -17 -202 -41 -291
-44 -42 -2 -60 8 -60 34 0 30 -62 42 -87 16 -7 -7 6 -33 29 -58 63 -67 71
-201 22 -363 -23 -74 -46 -189 -52 -255 -17 -189 -118 -450 -175 -450 -39 0 1
364 45 406 56 53 51 195 -9 267 -105 128 -124 298 -37 329 l56 19 -9 224 c-5
124 -7 275 -5 335 1 61 -8 144 -21 185 -23 73 30 169 63 115 13 -21 133 8 360
85 94 31 229 74 300 94 134 38 226 69 330 112 33 14 92 31 130 38 39 8 109 32
156 53 47 22 95 34 106 27 11 -7 40 0 64 16 24 16 79 35 121 43 70 13 167 49
257 94 19 10 49 12 66 5 17 -6 50 5 73 26 23 20 43 34 44 30 6 -14 166 25 247
61 80 35 86 44 86 114 l0 77 -135 -49 c-74 -26 -153 -52 -175 -57 -22 -4 -67
-14 -99 -21 -33 -7 -73 -21 -90 -30 -44 -25 -463 -158 -497 -158 -15 0 -52
-13 -81 -28 -29 -15 -120 -48 -203 -72 -82 -25 -184 -59 -226 -76 -42 -17 -96
-33 -120 -35 -43 -5 -149 -39 -342 -112 -53 -20 -112 -37 -130 -37 -46 0 -282
-103 -282 -123 0 -73 -59 3 -80 104 -14 67 -41 141 -59 165 -19 24 -45 76 -60
114 -42 114 -100 230 -111 225 -15 -8 -270 199 -270 219 0 9 -13 16 -29 16
-32 0 -146 135 -203 240 -54 101 -130 180 -172 180 -43 0 -49 101 -15 226 37
132 9 127 -33 -6 -52 -165 -97 -176 -101 -25 -4 135 -26 162 -101 125 -31 -15
-62 -26 -69 -24 -7 1 -9 -13 -4 -32 5 -19 -6 -52 -23 -74 -19 -24 -29 -28 -25
-11 8 32 -112 154 -169 172 -91 29 -168 -113 -116 -212 36 -67 49 -254 20
-288 -15 -19 -19 -60 -11 -115 12 -80 11 -83 -18 -48 -18 23 -25 57 -18 85 17
69 -4 57 -42 -25 -32 -67 -32 -73 0 -96 43 -32 55 -172 15 -172 -16 0 -22 -10
-14 -23 8 -13 5 -18 -5 -11 -11 6 -58 2 -104 -10 -62 -16 -92 -15 -108 1 -16
16 -29 12 -48 -13 -23 -31 -26 -31 -26 -1 -1 33 -61 161 -61 130 0 -10 -18 4
-39 30 -32 37 -40 40 -40 14 -1 -23 -13 -30 -41 -23 -44 12 -52 36 -18 57 13
8 16 48 8 109 -8 56 -5 101 6 108 11 6 18 44 17 84 -2 39 3 76 12 81 9 5 10
18 4 28 -20 33 14 67 35 36 13 -19 15 -15 7 15 -14 49 141 57 223 12 57 -31
143 -33 112 -2 -30 30 29 99 70 83 23 -9 27 -3 17 23 -7 19 -13 41 -13 49 0 7
-9 0 -19 -16 -17 -26 -34 -3 -70 92 -1 1 -23 9 -51 17 -50 15 -50 15 -13 -27
62 -69 31 -108 -61 -75 -42 15 -104 22 -139 17 -34 -5 -68 1 -76 13 -15 24
-71 -19 -71 -53 0 -11 -17 -34 -38 -53 -40 -37 -82 40 -50 92 8 13 5 17 -8 9
-13 -9 -24 11 -30 52 -4 36 -9 52 -11 35z m166 -254 c-9 -42 -15 -96 -14 -121
4 -55 -11 -58 -31 -6 -8 21 -15 -42 -17 -141 -3 -201 -9 -219 -61 -167 -32 32
-37 33 -42 4 -8 -40 50 -155 77 -155 11 0 29 -23 40 -52 13 -34 30 -48 49 -41
30 12 45 -65 19 -91 -18 -18 -90 7 -78 26 6 10 6 18 0 18 -7 0 -20 -20 -28
-44 l-16 -43 -12 44 c-6 23 -3 38 7 32 24 -15 23 13 -2 51 -14 22 -19 23 -20
4 0 -18 -14 -22 -40 -14 -23 7 -40 4 -40 -9 0 -41 -30 -19 -60 44 -23 51 -41
64 -80 61 -48 -4 -180 138 -180 194 0 11 -18 38 -40 60 -22 22 -40 64 -40 93
0 30 6 48 13 41 18 -18 92 125 80 155 -5 14 -1 37 9 53 10 17 18 19 18 5 0
-14 17 -19 42 -12 35 9 40 3 35 -37 -5 -31 -19 -47 -42 -45 -37 3 -42 -11 -23
-61 15 -38 42 -42 53 -7 5 14 5 -1 -1 -34 -8 -54 -6 -56 24 -26 21 21 32 67
32 135 0 57 8 97 18 91 10 -6 24 0 30 14 6 14 6 -9 -1 -50 -9 -57 -4 -77 21
-87 18 -7 32 -27 32 -45 1 -62 32 -90 73 -66 20 12 26 22 14 22 -29 1 -77 138
-56 157 8 8 18 3 23 -11 18 -48 46 -24 48 40 l2 65 21 -65 c26 -83 41 -82 75
4 15 38 34 65 43 59 10 -6 17 5 17 24 0 19 6 29 12 22 7 -7 6 -46 -3 -88z
m631 54 c17 26 19 25 20 -5 0 -21 15 -35 39 -35 27 0 36 -10 28 -30 -16 -42 8
-95 35 -79 16 10 15 18 -2 29 -18 11 -19 25 -3 53 21 36 22 35 24 -3 3 -34 6
-32 19 10 l16 50 2 -50 c2 -27 8 -70 15 -95 9 -35 3 -45 -26 -45 -20 0 -28 -7
-17 -15 29 -22 90 -160 90 -205 0 -39 75 -105 101 -89 17 10 159 -125 159
-151 0 -20 53 -41 67 -26 6 6 -6 45 -28 88 -21 42 -39 106 -39 142 0 37 -7 93
-16 126 -11 40 -8 77 9 110 l26 50 1 -47 c0 -26 18 -72 39 -102 22 -31 35 -60
29 -67 -21 -20 33 -94 93 -124 32 -17 59 -45 59 -63 0 -24 -7 -26 -26 -10 -95
78 -128 -2 -51 -126 l38 -61 -9 57 c-8 43 -3 54 19 45 17 -6 29 1 29 19 0 39
33 37 48 -2 6 -18 22 -25 35 -17 13 8 18 6 11 -6 -12 -19 70 -105 101 -107 29
-1 129 -117 121 -140 -5 -17 -20 -12 -45 13 -37 37 -37 36 -23 -21 16 -65 66
-112 112 -106 61 8 85 -26 48 -67 -20 -22 -25 -38 -11 -38 34 0 28 -41 -11
-85 -28 -30 -30 -44 -10 -76 19 -31 19 -47 0 -78 -14 -22 -19 -45 -12 -52 24
-24 56 13 56 62 0 154 40 16 44 -155 6 -191 8 -201 40 -169 38 37 49 26 95
-95 19 -50 -6 -59 -79 -31 -5 2 -15 3 -22 2 -7 0 -8 21 -3 48 8 39 3 47 -23
37 -24 -9 -32 0 -32 38 0 68 -20 116 -42 103 -10 -6 -18 -31 -18 -55 -1 -31
-5 -36 -17 -18 -9 15 -13 47 -8 72 5 28 -10 67 -41 103 -105 126 -160 270
-114 299 11 7 21 32 22 56 2 34 5 36 12 9 5 -20 17 -30 28 -24 29 18 21 -15
-14 -53 -36 -40 3 -129 44 -102 37 25 52 90 18 77 -32 -13 -37 4 -18 55 7 18
27 32 45 32 23 0 15 15 -27 48 -41 33 -64 41 -74 25 -27 -43 -63 17 -38 64 23
42 0 76 -36 54 -10 -6 -23 2 -29 18 -6 17 -3 35 8 42 31 19 22 45 -36 98 -87
81 -113 68 -99 -49 11 -90 9 -99 -22 -82 -19 10 -43 18 -54 19 -11 0 -23 17
-26 37 -21 131 -23 134 -67 94 -38 -35 -42 -35 -65 -4 -13 18 -48 39 -77 46
-29 8 -57 26 -63 41 -6 16 -24 23 -41 17 -18 -7 -31 -2 -31 13 0 14 -6 20 -13
12 -8 -7 -29 0 -47 17 -63 57 -146 58 -206 2 -71 -66 -74 -65 -74 13 -1 36
-10 105 -21 154 -18 75 -14 103 22 188 34 78 38 109 21 146 -11 26 -14 44 -6
42 7 -3 16 4 19 15 3 11 -6 20 -20 20 -13 0 -27 18 -31 40 -5 33 -3 35 15 10
19 -27 23 -27 41 0z m332 -217 c-6 -62 -5 -95 1 -73 6 22 21 46 32 53 11 7 20
36 20 65 0 60 25 68 51 17 22 -43 -9 -172 -37 -154 -11 6 -18 5 -16 -5 2 -9
-8 -43 -23 -76 l-26 -60 -23 100 c-17 78 -24 217 -12 266 14 60 41 -48 33
-133z m-1554 -298 c1 -14 -11 -25 -28 -25 -32 0 -39 53 -16 113 14 37 38 -11
44 -88z m2475 -760 c-6 -41 -7 -64 -1 -50 18 41 48 7 46 -51 0 -30 -6 -43 -11
-30 -5 13 -23 19 -38 13 -35 -14 -46 87 -19 168 19 54 34 21 23 -50z m2206
-775 c-29 -29 -182 -69 -155 -41 11 13 149 68 175 70 5 1 -4 -12 -20 -29z
m-4279 -77 c0 -14 -14 -43 -30 -64 -21 -28 -27 -30 -19 -7 7 20 -3 38 -25 47
-34 13 -34 15 2 42 41 30 72 22 72 -18z m3830 -33 c-7 -11 -29 -20 -50 -20
-21 0 -42 -8 -48 -17 -6 -9 -49 -18 -96 -19 -70 -2 -79 1 -49 19 20 11 58 17
85 12 26 -5 58 3 70 18 26 31 107 37 88 7z m-3770 -1170 c-48 -58 -135 32
-109 113 11 34 18 32 72 -23 50 -50 57 -66 37 -90z m-1020 97 c0 -15 -17 -27
-39 -27 -21 0 -44 -9 -51 -20 -7 -11 -28 -20 -46 -20 -19 0 -46 -18 -59 -40
-14 -22 -40 -40 -58 -40 -31 0 -31 3 0 37 18 20 33 61 33 91 0 53 3 54 110 50
76 -3 110 -13 110 -31z"/>
<path d="M1055 7775 c-11 -31 26 -117 45 -105 18 11 1 107 -21 120 -8 6 -19
-1 -24 -15z"/>
<path d="M2087 7890 c-7 -18 1 -43 18 -56 17 -13 41 -57 54 -97 37 -118 101
-163 101 -71 0 87 -150 283 -173 224z"/>
<path d="M2064 7679 c-14 -46 -22 -88 -18 -92 15 -14 58 108 51 143 -4 18 -19
-5 -33 -51z"/>
<path d="M5890 8064 c-11 -8 -22 -34 -25 -58 -5 -51 44 -44 64 9 15 38 -11 69
-39 49z"/>
<path d="M1640 7981 c0 -11 18 -54 39 -95 22 -42 43 -94 46 -116 3 -22 13 -51
22 -65 16 -27 1 -65 -26 -65 -9 0 -27 40 -41 89 -13 49 -37 93 -52 99 -34 13
-37 -42 -7 -121 14 -36 14 -59 2 -63 -12 -4 -12 -33 1 -80 24 -88 44 -114 76
-94 18 11 18 19 -3 32 -22 13 -22 21 -1 42 21 21 29 20 44 -4 15 -25 20 -24
31 6 7 19 26 34 41 34 37 0 35 19 -7 67 -34 38 -33 39 10 28 25 -6 40 -4 35 5
-6 10 8 23 30 30 22 7 40 29 40 50 0 20 7 40 15 45 8 5 4 6 -10 2 -14 -3 -25
8 -25 25 0 17 -8 25 -18 19 -10 -6 -23 0 -29 14 -5 14 -11 -6 -11 -43 -1 -38
-8 -63 -15 -56 -7 8 -12 40 -11 72 1 45 -15 72 -66 111 -70 53 -110 65 -110
32z"/>
<path d="M5968 7871 c-6 -27 -25 -60 -40 -73 -42 -34 -34 -53 22 -53 46 0 50
8 50 88 0 97 -13 112 -32 38z"/>
<path d="M5764 7823 c-36 -19 -59 -42 -50 -50 9 -9 16 -31 16 -49 0 -19 11
-33 25 -32 14 1 39 3 55 5 17 2 30 17 30 34 0 17 -8 26 -18 20 -9 -6 -28 2
-41 18 -18 22 -15 30 18 41 23 7 41 21 41 31 0 24 3 24 -76 -18z"/>
<path d="M5460 7670 c-24 -63 -151 -74 -166 -15 -8 31 -10 31 -12 1 -1 -25
-15 -31 -53 -24 -44 8 -51 3 -45 -36 3 -25 -5 -46 -17 -46 -13 0 -30 -7 -38
-15 -21 -20 121 -2 246 31 58 15 105 23 105 16 1 -35 39 55 40 93 0 60 -36 57
-60 -5z"/>
<path d="M5027 7570 c-6 -16 -18 -26 -26 -21 -8 5 -35 -9 -60 -32 -25 -23 -67
-42 -94 -42 -38 0 -48 -9 -43 -41 8 -53 43 -64 82 -25 17 17 41 31 53 31 11 0
21 8 21 18 0 10 26 27 59 38 45 16 56 30 47 62 -13 50 -23 53 -39 12z"/>
<path d="M4609 7360 c0 -22 7 -40 15 -40 9 0 16 9 16 20 0 11 10 18 23 15 12
-3 26 6 31 20 6 16 -9 25 -38 25 -34 0 -47 -11 -47 -40z"/>
<path d="M4489 7358 c-18 -28 9 -58 52 -58 22 0 39 12 39 28 0 32 -75 57 -91
30z"/>
<path d="M4302 7293 c-1 -20 -20 -41 -42 -47 -38 -10 -57 -46 -24 -46 40 0 88
55 78 91 -9 36 -10 36 -12 2z"/>
<path d="M4396 7283 c6 -18 2 -24 -11 -16 -12 8 -27 6 -32 -2 -6 -9 11 -18 36
-20 31 -3 50 9 57 34 7 28 0 37 -26 35 -22 -1 -31 -13 -24 -31z"/>
<path d="M660 7221 c0 -14 -13 -20 -29 -14 -40 15 -69 -29 -50 -77 16 -39 17
-39 30 5 7 24 22 40 31 34 21 -13 49 47 30 65 -6 7 -12 1 -12 -13z"/>
<path d="M4147 7214 c-9 -16 -39 -33 -67 -37 -30 -4 -51 -21 -53 -42 -2 -24 0
-26 6 -6 7 20 26 26 64 19 63 -13 111 27 84 70 -13 22 -20 21 -34 -4z"/>
<path d="M5620 7020 c-16 -11 -50 -20 -75 -20 -50 0 -61 -30 -17 -47 16 -6 49
7 75 29 25 22 62 36 81 31 20 -5 31 -1 25 9 -15 23 -51 23 -89 -2z"/>
<path d="M5150 6878 c-63 -28 -70 -35 -34 -37 40 -1 164 49 164 66 0 16 -58 3
-130 -29z"/>
<path d="M1961 6865 c0 -25 -10 -45 -21 -45 -11 0 -20 -10 -20 -21 0 -12 10
-15 22 -8 12 8 30 2 40 -13 23 -38 22 36 -2 92 -16 38 -17 38 -19 -5z"/>
<path d="M935 6662 c-30 -32 -55 -69 -55 -81 0 -13 -9 -18 -20 -11 -12 7 -14
-2 -6 -23 12 -30 17 -28 36 19 15 37 28 48 43 33 29 -29 72 26 64 80 -7 39
-10 38 -62 -17z"/>
<path d="M2160 6654 c0 -9 -10 -10 -23 -2 -13 8 -19 3 -13 -14 15 -44 234 -43
222 1 -9 36 -186 50 -186 15z"/>
<path d="M794 6439 c-7 -26 0 -46 18 -53 41 -15 63 12 27 35 -20 12 -21 18 -4
19 14 0 25 9 25 20 0 38 -55 20 -66 -21z"/>
<path d="M700 6401 c0 -11 -13 -15 -30 -8 -35 13 -44 -82 -10 -103 11 -7 20 2
20 19 0 17 12 31 26 31 14 0 25 18 25 40 0 22 -7 40 -15 40 -9 0 -16 -9 -16
-19z"/>
<path d="M1999 6260 c-149 -32 -192 -68 -169 -140 16 -50 -3 -82 -40 -67 -22
8 -26 33 -16 104 12 90 12 92 -25 55 -36 -36 -37 -36 -51 1 -12 31 -18 27 -38
-28 -16 -42 -37 -65 -62 -65 -79 0 -29 -69 121 -164 97 -61 131 -70 115 -30
-5 15 7 38 28 51 21 13 38 39 38 58 0 19 10 49 22 65 16 23 19 15 13 -35 -4
-36 -5 -65 -2 -65 24 0 147 71 147 85 0 10 14 4 31 -14 41 -40 88 -40 119 3
18 25 52 32 132 29 60 -2 121 5 137 15 19 13 49 8 90 -14 33 -18 69 -30 78
-27 10 2 49 -14 88 -37 38 -23 75 -37 80 -31 6 5 42 -30 81 -79 95 -123 120
-118 135 29 6 63 2 77 -22 68 -19 -7 -29 2 -30 26 0 35 -2 35 -30 -2 -26 -34
-29 -35 -29 -4 0 19 -13 39 -30 46 -36 13 -40 67 -6 67 52 0 -22 45 -86 52
-36 5 -81 23 -101 41 -50 45 -518 50 -718 7z"/>
<path d="M1240 6123 c0 -14 86 -63 111 -63 5 0 9 15 9 33 0 19 -5 28 -12 22
-7 -7 -34 -4 -60 6 -26 10 -48 11 -48 2z"/>
<path d="M2168 5915 c-54 -8 -129 -10 -168 -5 -84 11 -131 -13 -113 -59 7 -19
21 -28 31 -22 11 6 32 -6 47 -29 16 -22 35 -34 42 -27 7 8 13 3 13 -10 0 -12
-9 -23 -20 -23 -24 0 -3 -106 23 -117 9 -3 17 -20 17 -36 0 -16 9 -24 20 -17
11 7 26 -1 32 -19 7 -17 20 -26 29 -21 9 6 22 2 29 -10 7 -11 29 -20 49 -20
20 0 41 -12 47 -27 6 -15 36 -33 67 -38 48 -10 51 -8 23 13 -58 42 -13 68 95
53 112 -14 220 15 182 49 -13 11 -77 23 -143 26 -66 3 -123 14 -127 25 -3 10
-27 19 -53 19 -26 0 -50 11 -55 25 -7 20 -15 20 -38 1 -25 -21 -29 -13 -28 55
1 78 30 118 86 119 14 0 25 -19 25 -41 0 -88 35 -118 130 -114 83 3 146 53 91
71 -39 13 -21 59 26 68 111 22 145 -65 48 -124 l-65 -40 56 0 c30 0 85 12 121
28 45 18 120 25 229 20 197 -10 204 19 27 103 -248 118 -524 162 -775 124z
m549 -87 c35 -17 59 -39 53 -49 -6 -9 -42 1 -81 24 -106 63 -85 82 28 25z"/>
<path d="M1877 5690 c-2 -16 -4 -40 -5 -53 -1 -13 21 -25 50 -26 43 -2 50 5
42 38 -17 66 -81 96 -87 41z"/>
<path d="M5371 5682 c-24 -39 -15 -175 16 -242 30 -67 31 -67 19 -10 -7 33
-13 107 -13 165 -1 109 -3 117 -22 87z"/>
<path d="M3682 5653 c-23 -29 -10 -93 19 -93 9 0 19 -38 23 -85 l6 -85 34 96
c50 140 -8 256 -82 167z"/>
<path d="M95 5604 c-83 -27 -95 -38 -95 -86 0 -55 21 -60 120 -23 17 6 46 12
65 14 45 5 118 72 109 99 -11 32 -93 30 -199 -4z"/>
<path d="M3000 5520 c0 -12 -25 -21 -55 -18 -85 6 -125 0 -125 -21 0 -28 64
-35 130 -14 75 23 100 45 72 62 -12 7 -22 3 -22 -9z"/>
<path d="M2020 5184 c0 -19 13 -54 29 -77 17 -23 36 -79 43 -124 11 -67 21
-83 56 -83 23 -1 60 -26 82 -58 50 -72 212 -247 219 -239 43 47 29 143 -27
195 -39 36 -62 78 -62 110 0 32 -11 52 -29 52 -34 0 -94 79 -79 104 6 9 -1 15
-16 11 -14 -3 -24 6 -21 20 3 14 -3 25 -14 25 -10 0 -24 19 -32 42 -9 29 -25
39 -51 32 -21 -6 -38 -2 -38 8 0 10 -13 18 -30 18 -16 0 -30 -16 -30 -36z"/>
<path d="M5911 4850 c24 -157 36 -187 58 -151 7 11 5 21 -6 21 -10 0 -25 63
-33 140 -8 77 -21 140 -28 140 -8 0 -4 -68 9 -150z"/>
<path d="M1682 4928 c-44 -56 -38 -106 9 -67 62 51 289 -69 234 -124 -37 -37
-85 -37 -87 0 -1 21 -5 24 -11 8 -6 -14 -19 -20 -30 -13 -10 6 -31 2 -45 -11
-15 -12 -41 -16 -59 -9 -37 14 -45 -3 -63 -137 -14 -109 0 -116 113 -59 63 33
80 34 149 10 68 -24 81 -23 100 4 20 27 27 24 57 -21 26 -40 40 -47 61 -29 34
28 78 7 158 -78 78 -81 30 -103 -103 -47 -105 43 -200 46 -224 6 -9 -14 -26
-20 -39 -12 -60 37 -177 32 -188 -9 -14 -54 -43 -50 -70 10 -19 40 -38 50 -97
50 -40 0 -68 -5 -62 -12 26 -25 -63 -91 -124 -92 -53 -2 -62 -9 -54 -40 9 -34
0 -38 -73 -32 -92 7 -122 -34 -65 -90 23 -23 24 -33 6 -39 -19 -6 -19 -20 0
-63 14 -30 33 -49 43 -43 10 6 44 -14 77 -44 42 -40 78 -54 127 -53 37 2 86
-7 108 -19 22 -11 56 -19 75 -16 22 4 35 -7 35 -29 0 -19 -6 -29 -13 -22 -22
22 -66 -26 -53 -58 9 -24 16 -24 42 -4 25 21 32 21 39 0 7 -20 15 -20 38 -2
18 16 36 17 48 5 28 -28 159 -8 159 24 0 15 27 29 65 33 54 5 69 17 88 76 12
39 37 73 55 77 18 3 27 14 21 24 -6 10 0 38 12 61 28 52 9 49 -211 -31 -162
-59 -340 -55 -433 11 -29 21 -68 38 -86 38 -26 0 -85 96 -67 110 75 57 375 69
377 15 2 -30 4 -30 17 4 10 26 52 48 124 66 197 51 233 52 304 10 41 -24 89
-36 125 -31 72 11 133 -36 176 -135 16 -38 30 -57 31 -42 3 40 62 -12 63 -54
1 -46 51 -132 64 -111 21 35 2 185 -31 234 -18 28 -39 90 -47 138 -23 148
-169 316 -275 316 -15 0 -48 17 -75 38 -31 25 -67 35 -102 28 -103 -20 -155
84 -75 151 41 34 44 42 15 42 -19 1 -35 10 -35 21 0 93 -256 147 -318 68z"/>
<path d="M1500 4922 c0 -65 59 -182 92 -182 27 0 26 11 -10 71 -23 39 -42 89
-42 110 0 22 -9 39 -20 39 -11 0 -20 -17 -20 -38z"/>
<path d="M676 4746 c-8 -31 -4 -40 16 -32 17 6 28 -3 28 -21 0 -19 -11 -27
-28 -21 -42 16 -64 -103 -26 -141 33 -32 87 51 61 94 -8 13 -4 15 13 5 20 -12
23 -5 13 32 -7 26 -13 66 -13 88 0 30 -5 33 -18 13 -14 -23 -19 -23 -26 -1 -6
17 -13 11 -20 -16z"/>
<path d="M3155 4451 c-41 -38 -75 -81 -75 -96 0 -15 -31 -38 -70 -52 -38 -14
-70 -38 -70 -54 0 -16 12 -23 30 -16 16 6 25 19 19 29 -14 23 -4 23 58 -1 41
-15 52 -12 59 15 5 19 10 0 12 -42 1 -50 -8 -79 -28 -87 -16 -6 -30 -31 -29
-54 0 -40 2 -40 27 -8 14 19 31 29 37 23 21 -21 36 67 25 152 -10 85 46 220
92 220 10 0 18 9 18 20 0 35 -28 22 -105 -49z"/>
<path d="M5180 4461 c0 -26 -10 -36 -28 -29 -26 10 -10 -160 18 -189 24 -24
36 23 15 57 -25 40 -14 100 17 100 10 0 18 23 18 50 0 28 -9 50 -20 50 -11 0
-20 -18 -20 -39z"/>
<path d="M301 4402 c-21 -84 -73 -327 -182 -852 l-79 -380 9 185 c9 191 -14
252 -38 97 -17 -115 -10 -621 9 -652 25 -40 37 2 89 303 55 314 145 764 222
1104 58 256 58 266 19 266 -18 0 -38 -29 -49 -71z"/>
<path d="M157 4345 c-12 -30 -24 -98 -25 -150 -3 -127 41 -127 58 0 7 52 17
120 23 150 6 33 1 55 -12 55 -12 0 -32 -25 -44 -55z"/>
<path d="M4390 4278 c8 -60 23 -129 33 -156 10 -26 16 -77 13 -114 -2 -38 8
-79 22 -93 21 -20 24 -13 13 40 -10 43 -7 65 9 65 13 0 16 10 7 25 -14 22 -26
101 -33 219 -2 18 -10 29 -18 23 -9 -5 -16 9 -16 31 0 22 -10 46 -22 53 -16
10 -18 -16 -8 -93z"/>
<path d="M3089 4039 c-11 -17 -46 -30 -79 -30 -65 1 -88 -90 -46 -175 12 -23
11 -46 -3 -63 -16 -19 -13 -32 9 -51 40 -33 93 29 77 92 -5 23 10 79 33 124
42 81 49 169 9 103z"/>
<path d="M110 4016 c-17 -49 -49 -206 -50 -245 0 -75 45 3 54 92 5 47 17 101
27 120 12 22 12 39 -1 47 -11 7 -24 1 -30 -14z"/>
<path d="M2653 3906 c-20 -20 -15 -117 9 -180 l21 -56 39 47 c55 69 -10 248
-69 189z"/>
<path d="M1264 3788 c-26 -47 -6 -113 30 -99 16 6 32 11 35 11 12 0 -15 101
-30 111 -9 5 -25 -5 -35 -23z"/>
<path d="M324 3665 c-23 -90 -104 -639 -104 -703 0 -110 52 54 82 259 65 446
75 655 22 444z"/>
<path d="M3989 3595 c1 -150 -23 -275 -52 -275 -12 0 -16 14 -10 30 7 19 0 30
-20 30 -19 0 -27 -11 -20 -30 7 -17 1 -28 -13 -25 -17 4 -22 -25 -17 -95 3
-55 -4 -126 -16 -157 -16 -42 -16 -65 0 -85 18 -21 14 -25 -19 -18 -33 6 -42
-2 -42 -41 0 -27 9 -49 20 -49 11 0 20 -13 20 -30 0 -16 -9 -30 -20 -30 -11 0
-20 -17 -20 -39 0 -21 -9 -44 -20 -51 -12 -7 -15 -22 -8 -33 7 -12 3 -42 -10
-69 -12 -26 -30 -68 -39 -93 -10 -25 -37 -84 -60 -132 -45 -90 -56 -163 -25
-163 9 0 22 25 29 55 15 69 47 118 65 100 7 -8 -3 -38 -22 -68 -26 -39 -29
-57 -12 -63 18 -6 18 -15 0 -36 -18 -23 -14 -28 21 -28 24 0 38 -9 31 -20 -7
-11 -3 -20 9 -20 27 0 28 54 1 70 -30 19 -24 74 19 163 21 44 49 123 62 174
13 52 32 99 41 105 10 5 18 26 18 44 0 19 14 60 30 91 16 31 43 101 58 154 16
54 43 127 59 163 145 318 134 596 -25 596 -8 0 -14 -56 -13 -125z m60 -97 c-8
-90 -31 -195 -51 -235 -39 -79 -50 -54 -19 46 10 33 30 126 43 206 32 192 44
184 27 -17z"/>
<path d="M1512 3623 c-24 -38 -28 -382 -5 -356 48 52 75 113 50 113 -13 0 -18
6 -11 13 8 7 4 25 -8 39 -15 18 -14 37 1 65 36 69 11 188 -27 126z"/>
<path d="M2379 3601 c12 -21 22 -59 22 -85 l2 -46 18 46 c12 31 10 58 -6 85
-32 51 -63 51 -36 0z"/>
<path d="M1200 3602 c0 -9 -20 -23 -45 -30 -38 -10 -40 -15 -15 -32 54 -35 92
-23 92 30 0 28 -7 50 -16 50 -9 0 -16 -8 -16 -18z"/>
<path d="M4231 3395 c6 -102 21 -216 34 -255 13 -38 25 -88 26 -110 6 -81 10
-90 37 -90 50 0 73 261 33 366 -9 26 -15 89 -11 140 3 60 -3 94 -17 94 -13 0
-9 9 7 20 22 14 11 19 -45 20 l-76 0 12 -185z"/>
<path d="M4459 3531 c-25 -25 -24 -93 1 -131 20 -30 44 -13 65 45 3 9 39 20
81 25 90 12 118 -34 92 -151 -9 -40 -15 -142 -12 -226 3 -99 -3 -151 -16 -146
-11 4 -32 -4 -46 -20 -15 -15 -17 -27 -5 -27 12 0 21 -18 21 -40 0 -48 -31
-53 -48 -8 -19 50 -14 104 11 112 36 12 41 196 6 196 -37 0 -36 35 2 108 23
46 25 62 6 74 -41 25 -60 -2 -46 -64 9 -44 5 -58 -14 -54 -17 4 -25 -10 -22
-40 3 -26 -2 -42 -10 -37 -39 24 -7 -292 33 -329 37 -34 39 -98 4 -98 -8 0
-14 -22 -14 -49 0 -39 6 -45 27 -27 15 12 22 34 17 48 -14 38 33 69 60 40 17
-18 16 -35 -5 -63 -25 -33 -24 -40 7 -52 31 -12 30 -14 -8 -16 -24 0 -49 -10
-55 -20 -7 -11 -25 -14 -42 -8 -16 6 -29 1 -29 -11 0 -12 28 -22 61 -22 53 0
60 -6 49 -40 -7 -23 -4 -40 9 -40 11 0 21 -18 21 -40 0 -22 -10 -40 -22 -40
-13 0 -19 -21 -13 -50 5 -28 3 -87 -5 -131 -8 -44 -8 -84 1 -89 15 -10 8 -68
-16 -130 -6 -16 -9 -38 -7 -49 3 -10 9 -105 15 -210 6 -105 14 -195 19 -199
21 -22 29 25 31 170 1 97 13 175 30 203 16 25 28 75 28 110 0 36 -1 103 -1
148 -1 46 8 90 19 97 15 8 14 25 -1 54 -17 32 -17 37 3 25 18 -11 22 -6 14 15
-7 17 -3 70 7 117 14 61 13 90 -3 100 -17 10 -17 18 -1 28 13 8 18 22 12 31
-16 26 47 719 73 799 35 107 -24 144 -217 136 -81 -3 -157 -14 -167 -24z"/>
<path d="M2152 3408 c-24 -64 -16 -94 18 -61 33 33 41 93 12 93 -10 0 -23 -14
-30 -32z"/>
<path d="M4933 3407 c-25 -26 -13 -203 20 -280 43 -101 47 -167 9 -167 -23 0
-25 -5 -6 -24 13 -13 24 -40 24 -60 0 -37 88 -86 120 -66 9 5 21 -4 27 -20 8
-20 -1 -30 -27 -30 -25 0 -35 -10 -28 -28 14 -36 -32 -65 -52 -32 -12 19 -17
18 -24 -3 -5 -15 5 -39 22 -53 18 -15 21 -22 8 -15 -13 6 -29 2 -36 -9 -7 -11
0 -25 16 -31 36 -14 36 -161 0 -154 -14 3 -20 -8 -13 -25 6 -17 24 -30 39 -30
15 0 28 -9 28 -20 0 -11 -13 -20 -29 -20 -16 0 -34 -8 -40 -18 -16 -26 74 0
105 31 14 14 40 20 59 12 21 -8 24 -15 9 -20 -13 -5 -24 -37 -24 -72 -1 -92
-20 -150 -53 -157 -44 -9 -78 -695 -35 -710 20 -7 33 69 32 189 0 26 12 45 30
45 25 0 25 4 -1 30 -31 30 -5 205 47 326 11 25 20 67 20 93 0 26 11 53 25 59
14 6 3 6 -25 -1 -48 -12 -49 -11 -15 27 19 21 35 47 35 58 0 10 -10 5 -22 -12
-19 -27 -20 -27 -13 0 5 17 21 30 37 30 43 0 49 19 41 119 -7 93 -7 93 -54 62
-26 -17 -52 -31 -58 -31 -24 0 -9 194 20 248 16 32 34 95 39 140 5 45 15 107
22 138 10 42 2 67 -30 102 -38 41 -40 49 -13 71 17 14 31 39 31 55 0 15 8 23
19 17 10 -6 24 -3 31 9 26 42 116 24 104 -21 -6 -25 0 -46 16 -52 14 -5 32
-32 39 -58 6 -27 22 -47 35 -44 16 3 22 -21 18 -72 -9 -123 58 -173 108 -81
25 46 43 62 59 49 12 -10 40 -16 62 -12 45 7 149 -47 149 -78 0 -12 9 -7 20 9
29 44 24 100 -8 100 -16 0 -32 10 -36 22 -4 12 -50 27 -102 33 -86 9 -234 108
-234 155 0 20 -58 73 -85 78 -148 25 -415 149 -415 192 0 23 -27 26 -47 7z
m207 -416 c0 -15 -13 -32 -30 -38 -30 -12 -44 46 -17 73 18 18 47 -3 47 -35z"/>
<path d="M4131 3135 c-4 -14 -18 -74 -31 -135 -12 -60 -35 -168 -50 -240 -16
-71 -52 -211 -82 -310 -43 -143 -53 -218 -52 -365 1 -105 -6 -185 -17 -185
-10 0 -19 -13 -19 -30 0 -16 -7 -30 -15 -30 -8 0 -16 -25 -18 -55 -5 -83 -40
-228 -60 -242 -9 -7 -18 -52 -19 -100 -1 -48 -13 -94 -28 -103 -14 -9 -21 -29
-14 -46 6 -16 -2 -48 -18 -70 -21 -31 -23 -54 -8 -94 11 -29 16 -61 10 -70 -6
-10 -2 -23 10 -30 11 -7 19 -37 18 -66 -2 -34 -6 -41 -12 -19 -19 74 -45 30
-39 -66 4 -75 -2 -106 -25 -119 -21 -13 -23 -19 -6 -19 18 -1 20 -11 6 -37
-11 -21 -12 -48 -2 -64 14 -22 23 -16 39 27 12 31 17 64 11 73 -6 10 4 26 23
36 21 12 28 32 20 54 -8 19 -5 45 5 58 31 37 34 192 4 211 -32 20 -12 61 29
61 16 0 29 9 29 20 0 11 -9 20 -20 20 -25 0 -26 50 -1 95 26 50 47 109 54 155
18 117 85 310 106 310 19 0 41 93 53 220 11 119 16 145 35 175 9 14 10 43 3
63 -6 21 -2 44 9 52 12 7 17 35 12 62 -4 27 -2 45 7 39 20 -12 64 222 49 260
-6 16 -2 29 9 29 11 0 16 26 11 58 -5 36 3 69 22 88 49 49 38 354 -12 354 -10
0 -22 -11 -26 -25z"/>
<path d="M5590 3139 c21 -33 213 -119 266 -119 81 0 18 52 -121 99 -139 46
-163 50 -145 20z"/>
<path d="M5875 2935 c44 -49 125 -46 125 5 0 33 -12 38 -78 35 -74 -5 -77 -7
-47 -40z"/>
<path d="M4480 2795 c1 -56 35 -84 69 -56 29 24 28 29 -4 53 -44 34 -65 35
-65 3z"/>
<path d="M5464 2768 c-21 -23 -20 -28 8 -28 24 0 27 -7 13 -25 -31 -39 -50
-115 -28 -115 10 0 29 28 41 62 14 41 29 56 46 46 15 -8 8 7 -14 34 -22 26
-40 49 -40 51 0 2 -12 -10 -26 -25z"/>
<path d="M1820 2732 c0 -16 -3 -41 -7 -55 -3 -15 -3 -20 2 -12 5 8 21 15 37
15 35 0 38 -93 3 -107 -15 -6 -10 -11 11 -11 21 -1 31 -11 23 -24 -10 -15 0
-18 32 -8 37 12 43 9 32 -21 -12 -30 -10 -31 19 -7 30 25 32 23 20 -17 -9 -28
-6 -45 7 -45 12 0 30 -20 40 -45 10 -25 19 -34 20 -20 2 47 81 28 82 -20 l2
-45 22 46 c12 25 32 42 45 37 54 -21 4 85 -51 107 -31 13 -61 37 -68 54 -6 17
-24 25 -40 19 -18 -7 -35 10 -48 48 -12 33 -30 60 -42 62 -12 1 -31 3 -43 5
-11 1 -33 18 -47 37 -31 42 -51 45 -51 7z"/>
<path d="M5580 2640 c0 -11 9 -20 20 -20 11 0 18 -8 15 -18 -5 -19 5 -23 60
-20 21 1 25 5 10 11 -14 6 -25 23 -25 39 0 15 -18 28 -40 28 -22 0 -40 -9 -40
-20z"/>
<path d="M5949 2642 c19 -31 -11 -82 -49 -82 -22 0 -41 -21 -49 -54 -17 -66
-74 -114 -96 -79 -10 17 -14 16 -15 -3 0 -15 -8 -21 -19 -15 -10 6 -24 3 -31
-9 -7 -11 -2 -20 11 -20 16 0 18 -8 4 -25 -11 -14 -17 -41 -14 -60 6 -41 -10
-54 -76 -59 -35 -3 -56 -22 -72 -65 -19 -54 -19 -57 6 -24 31 40 71 29 71 -19
0 -80 -103 -163 -127 -103 -6 15 -10 12 -11 -9 -1 -18 8 -40 20 -47 12 -8 15
-20 5 -26 -21 -16 -107 -138 -107 -152 0 -18 -79 -91 -98 -91 -20 0 -50 -60
-45 -92 2 -11 -9 -62 -24 -113 -15 -50 -22 -101 -14 -114 8 -12 -2 -87 -22
-167 -20 -79 -36 -160 -37 -180 0 -20 -9 -31 -20 -24 -25 16 -25 -11 0 -50 17
-25 23 -25 38 -3 12 19 21 21 31 5 8 -13 23 -17 35 -10 13 8 11 19 -7 31 -20
13 -21 21 -3 33 13 8 28 64 32 124 5 59 19 112 32 116 12 4 22 28 22 53 0 44
29 127 91 264 16 35 29 70 29 79 0 32 146 308 162 308 10 0 18 14 18 30 0 17
14 30 32 30 20 0 28 11 21 30 -7 17 -3 30 8 30 10 0 19 17 19 38 0 20 14 49
31 63 18 15 48 58 69 98 20 39 55 91 78 115 23 24 42 50 42 57 0 7 18 36 40
64 48 61 53 145 9 145 -17 0 -26 -8 -20 -18z"/>
<path d="M1484 2602 c-20 -12 -24 -215 -6 -278 1 -3 20 4 43 16 22 12 35 31
28 42 -7 10 -15 64 -18 119 -6 113 -11 123 -47 101z"/>
<path d="M1647 2570 c0 -16 7 -30 16 -30 9 0 11 -27 4 -60 -10 -49 -6 -58 19
-49 29 11 61 -42 51 -84 -6 -25 47 -127 66 -127 9 0 17 -10 17 -21 0 -12 -11
-15 -25 -7 -20 11 -20 8 0 -13 14 -15 25 -42 25 -61 0 -19 11 -38 25 -43 19
-6 19 -21 -2 -67 -20 -46 -21 -53 -1 -33 55 54 86 -17 33 -74 -20 -21 -20 -24
0 -13 18 10 25 -5 25 -55 0 -63 82 -168 137 -175 7 -1 38 -5 68 -10 34 -6 55
0 55 15 0 13 -5 18 -12 12 -24 -25 -62 35 -55 88 3 30 -7 91 -22 134 -15 44
-23 85 -16 91 6 7 2 12 -9 12 -12 0 -27 31 -34 68 -7 38 -26 73 -43 79 -16 7
-29 26 -29 42 0 17 -9 31 -20 31 -11 0 -20 17 -20 37 0 20 -7 43 -15 51 -8 9
-15 22 -15 31 0 8 -29 40 -65 70 -36 30 -65 66 -65 79 0 14 -21 45 -47 69 -35
34 -46 37 -46 13z"/>
<path d="M2707 2584 c7 -11 2 -24 -12 -29 -15 -5 -7 -18 22 -33 25 -14 52 -20
59 -13 16 17 -21 76 -55 87 -15 5 -21 0 -14 -12z"/>
<path d="M4380 2550 c0 -16 14 -30 30 -30 17 0 30 -9 30 -20 0 -11 9 -20 20
-20 11 0 20 14 20 30 0 17 -13 30 -30 30 -16 0 -30 9 -30 20 0 11 -9 20 -20
20 -11 0 -20 -13 -20 -30z"/>
<path d="M513 2512 c-6 -16 2 -34 18 -40 16 -6 29 -25 29 -41 0 -17 8 -31 18
-31 10 0 16 11 12 25 -28 114 -55 144 -77 87z"/>
<path d="M5404 2509 c-25 -28 -34 -67 -55 -239 -6 -44 -14 -91 -19 -105 -5
-14 0 -25 11 -25 10 0 20 16 22 35 2 19 5 44 8 55 2 11 5 36 7 55 1 19 12 33
25 30 15 -3 25 35 28 110 2 63 3 115 2 114 -2 0 -15 -14 -29 -30z"/>
<path d="M788 2452 c-18 -48 17 -283 42 -277 12 3 18 62 14 140 -6 138 -32
201 -56 137z"/>
<path d="M4396 2456 c13 -13 24 -40 24 -59 0 -19 8 -40 19 -46 21 -13 16 68
-6 105 -9 13 -26 24 -38 24 -17 0 -16 -7 1 -24z"/>
<path d="M718 2330 c-13 -82 10 -175 31 -125 8 19 7 68 -3 110 l-19 75 -9 -60z"/>
<path d="M2105 2277 c-20 -20 -10 -117 13 -117 7 0 37 -23 68 -52 46 -42 61
-47 86 -26 25 20 32 17 41 -17 12 -47 72 -80 83 -46 4 11 17 21 28 21 12 0 10
-13 -6 -32 -22 -27 -19 -37 23 -69 53 -40 61 -69 34 -124 -12 -25 -8 -39 14
-47 17 -7 26 -20 20 -30 -6 -10 3 -18 20 -18 17 0 31 9 31 21 0 11 16 18 35
15 24 -4 33 5 29 30 -5 31 0 33 34 15 33 -18 39 -16 30 7 -6 15 -2 33 8 40 28
17 10 215 -21 237 -20 14 -20 20 0 28 14 6 25 25 25 44 -1 28 -3 29 -20 3 -17
-26 -19 -25 -20 5 0 19 -9 35 -20 35 -11 0 -20 -13 -20 -30 0 -36 -62 -40 -97
-5 -21 20 -21 14 -5 -30 18 -46 15 -62 -18 -95 -22 -22 -40 -32 -40 -21 0 10
9 24 21 32 15 9 15 20 0 38 -11 13 -15 31 -7 38 7 7 2 13 -12 13 -13 0 -19 9
-12 20 7 11 6 30 -1 42 -10 16 -19 14 -31 -5 -13 -21 -17 -18 -18 10 0 28 -7
32 -25 17 -14 -11 -34 -22 -45 -24 -31 -5 -40 -20 -12 -20 13 0 19 -8 13 -18
-25 -41 -119 7 -102 52 8 21 2 27 -19 19 -18 -7 -30 -1 -30 15 0 36 -49 55
-75 29z"/>
<path d="M3523 2136 c-60 -130 -43 -249 18 -134 20 37 19 42 -8 32 -21 -8 -28
-3 -20 17 6 16 19 24 29 18 10 -6 18 7 18 30 0 37 20 50 65 43 8 -1 15 7 15
18 0 11 -13 20 -28 20 -16 0 -33 11 -37 25 -5 14 -28 -17 -52 -69z"/>
<path d="M825 2097 c-2 -24 -12 -49 -24 -56 -15 -10 -15 -43 0 -112 12 -55 27
-126 33 -159 6 -33 25 -76 42 -95 16 -19 23 -35 13 -35 -9 0 -7 -10 5 -22 13
-13 18 -35 12 -50 -6 -16 0 -28 13 -28 13 0 22 -20 20 -45 -6 -76 0 -95 30
-95 18 0 25 -12 18 -30 -6 -16 -2 -30 9 -30 28 0 44 -77 18 -85 -12 -4 -7 -14
12 -21 26 -9 34 -2 34 30 0 43 1 43 29 5 39 -51 38 -65 -4 -73 -31 -6 -31 -10
7 -48 22 -22 48 -58 56 -79 12 -32 17 -33 33 -8 14 22 18 16 19 -26 0 -34 11
-55 28 -55 15 0 33 -23 40 -50 7 -28 24 -50 37 -50 16 -1 14 -7 -5 -20 -20
-13 -22 -19 -5 -20 15 0 25 -29 25 -75 0 -41 7 -66 15 -54 21 30 116 25 110
-6 -3 -14 8 -25 24 -25 37 0 113 -80 99 -103 -6 -9 -2 -17 9 -17 10 0 24 13
30 30 7 17 25 24 43 17 25 -9 26 -18 6 -44 -20 -28 -20 -29 4 -8 34 30 120 33
120 5 0 -12 22 -15 53 -7 44 11 51 7 41 -20 -7 -18 -5 -33 5 -33 10 0 21 11
26 25 6 19 19 19 57 1 26 -13 37 -24 23 -25 -14 0 -25 -18 -25 -39 0 -43 212
-72 228 -32 5 11 10 -1 10 -26 1 -30 -6 -41 -21 -32 -13 8 -19 3 -13 -14 5
-15 25 -31 44 -35 20 -4 53 -24 74 -45 45 -45 78 -49 78 -9 0 18 -12 25 -30
18 -16 -6 -30 -1 -30 11 0 12 11 22 24 22 13 0 6 13 -15 28 -21 16 -44 25 -50
22 -11 -8 -18 35 -25 150 -4 62 -11 71 -74 82 -38 7 -92 22 -120 33 -27 11
-93 26 -145 33 -52 8 -95 23 -95 34 0 11 -7 16 -16 10 -9 -5 -42 3 -73 19 -30
16 -67 29 -80 29 -29 0 -251 214 -251 241 0 11 -8 19 -18 19 -9 0 -38 51 -63
112 -51 125 -128 228 -171 228 -15 0 -28 10 -28 21 0 12 -22 50 -48 85 -69 93
-143 300 -171 484 -25 161 -50 227 -56 147z"/>
<path d="M4222 2066 c2 -31 7 -41 11 -23 6 22 23 29 51 22 29 -8 39 -3 32 17
-19 58 -96 46 -94 -16z"/>
<path d="M5971 2041 c-7 -11 -6 -42 1 -71 7 -28 5 -50 -5 -48 -68 12 -133 -86
-85 -130 18 -17 21 -13 12 13 -7 19 -4 35 7 35 10 0 19 -16 19 -35 1 -28 4
-29 18 -7 10 15 28 21 40 13 12 -7 22 0 22 18 0 18 -18 32 -45 32 l-45 2 45
21 c35 17 45 39 45 99 0 78 -8 93 -29 58z"/>
<path d="M3640 2010 c-27 -16 -38 -29 -24 -29 15 -1 20 -11 12 -24 -8 -13 -3
-19 12 -14 20 7 72 99 54 96 -2 0 -26 -13 -54 -29z"/>
<path d="M3418 1955 c0 -3 -4 -21 -8 -40 -3 -19 -21 -49 -39 -67 -18 -18 -29
-43 -25 -55 4 -13 -5 -35 -19 -49 -15 -15 -26 -51 -25 -80 2 -34 6 -41 12 -19
5 19 17 35 27 35 10 0 10 -21 -1 -50 -15 -39 -13 -50 10 -50 17 0 30 11 30 25
0 14 23 73 50 131 27 58 39 100 27 92 -11 -7 -5 11 14 41 30 46 32 57 7 72
-27 18 -56 24 -60 14z"/>
<path d="M1085 1926 c-35 -13 -31 -46 5 -46 17 0 30 -13 30 -30 0 -16 9 -30
20 -30 11 0 20 -13 20 -30 0 -16 9 -30 20 -30 11 0 20 -13 20 -30 0 -16 9 -30
21 -30 14 0 13 14 -2 41 -12 23 -26 61 -30 84 -10 54 -71 113 -104 101z"/>
<path d="M4771 1902 c-33 -54 -36 -202 -4 -202 35 0 46 69 14 89 -10 7 -11 36
-1 71 17 59 13 77 -9 42z"/>
<path d="M5755 1804 c-13 -35 -36 -64 -51 -64 -14 0 -21 -9 -14 -20 25 -40 70
-20 70 31 0 28 8 46 19 40 28 -18 48 30 23 55 -16 16 -29 6 -47 -42z"/>
<path d="M1260 1805 c0 -38 104 -232 133 -251 14 -8 21 -27 15 -41 -5 -15 8
-48 30 -75 41 -48 41 -48 41 -4 1 24 -9 50 -21 57 -12 7 -17 31 -12 51 6 21 2
33 -8 27 -10 -6 -18 3 -18 20 0 17 -9 31 -20 31 -11 0 -20 14 -20 31 0 17 10
25 21 18 12 -7 10 5 -4 28 -14 23 -29 37 -34 32 -5 -4 -30 16 -56 46 -26 30
-47 44 -47 30z"/>
<path d="M4245 1805 c-14 -5 -20 -17 -14 -27 6 -10 2 -18 -10 -18 -30 0 -12
-126 19 -137 17 -5 22 3 14 23 -6 17 0 35 14 41 15 5 31 28 37 51 6 23 4 37
-5 32 -9 -6 -20 2 -23 17 -4 15 -18 23 -32 18z"/>
<path d="M2591 1701 c-6 -8 -47 -11 -92 -7 -76 8 -81 5 -69 -33 10 -32 6 -38
-19 -28 -28 10 -29 5 -8 -41 13 -28 31 -52 40 -52 9 0 17 -10 17 -21 0 -12 -9
-16 -20 -9 -11 7 -20 3 -20 -9 0 -11 14 -21 31 -21 19 0 29 14 26 35 -3 19 10
62 28 95 l33 60 1 -53 c2 -87 116 -81 120 6 1 8 6 27 12 43 12 30 -63 63 -80
35z"/>
<path d="M4798 1675 c-13 -25 -33 -51 -44 -58 -30 -19 1 -83 31 -64 19 11 20
8 4 -14 -19 -26 -21 -43 -11 -91 1 -7 17 -1 36 15 29 24 32 23 21 -7 -7 -19
-5 -40 6 -47 11 -7 17 18 14 60 -3 39 -13 71 -22 71 -18 0 -8 78 18 145 20 52
-25 43 -53 -10z"/>
<path d="M5621 1647 c-43 -55 -54 -107 -22 -107 10 0 24 9 32 21 8 14 23 13
46 -5 21 -16 19 -9 -7 23 -34 41 -35 46 -6 35 41 -15 61 10 44 54 -17 45 -39
40 -87 -21z"/>
<path d="M5800 1617 c0 -22 -13 -53 -30 -70 -34 -34 -39 -67 -10 -67 11 0 20
-16 20 -36 0 -21 16 -37 38 -38 32 -3 37 8 31 55 -4 33 1 59 12 59 10 0 19
-10 19 -21 0 -12 10 -15 22 -8 15 10 15 20 0 35 -27 27 -29 61 -3 45 10 -7 29
6 41 28 19 36 15 41 -24 43 -25 0 -62 4 -81 8 -24 4 -35 -6 -35 -33z"/>
<path d="M4180 1606 c0 -14 20 -43 44 -65 l43 -41 -43 -46 c-52 -55 -56 -85
-12 -102 43 -16 42 -17 54 28 7 27 0 40 -19 40 -26 0 -25 5 2 31 42 43 39 62
-19 125 -27 29 -50 43 -50 30z"/>
<path d="M1601 1525 c1 -23 57 -117 58 -98 1 10 13 8 28 -4 15 -13 33 -17 40
-10 18 18 -26 67 -59 67 -16 0 -28 14 -28 30 0 17 -9 30 -20 30 -11 0 -20 -7
-19 -15z"/>
<path d="M3282 1496 c-36 -58 -55 -286 -25 -304 14 -9 18 -3 11 17 -7 18 -2
31 14 31 19 0 20 6 4 22 -15 15 -8 58 24 150 45 128 29 176 -28 84z"/>
<path d="M5523 1495 c-13 -25 -27 -72 -32 -105 -4 -33 -17 -84 -28 -113 -22
-57 -49 -198 -51 -272 -1 -25 -8 -45 -15 -45 -21 0 -56 -178 -65 -330 -5 -77
-16 -232 -24 -345 -9 -136 -7 -205 6 -205 16 0 47 175 55 310 0 11 13 27 27
37 20 12 21 23 3 45 -18 21 -18 35 -1 56 29 34 34 119 13 218 -14 69 -11 78
28 88 34 9 38 16 18 29 -18 11 -20 22 -6 32 11 8 19 40 19 71 -1 31 5 61 13
66 8 5 11 22 5 37 -6 15 -1 33 11 40 12 8 20 5 16 -6 -3 -10 4 -20 15 -21 11
-1 19 46 18 108 -1 61 7 110 18 110 10 0 15 21 10 47 -5 26 2 64 17 83 18 25
20 46 6 73 -27 49 -47 47 -76 -8z"/>
<path d="M4778 1360 c-2 -38 0 -79 3 -90 3 -11 6 -35 6 -54 1 -18 15 -37 33
-42 38 -10 31 121 -12 203 l-28 53 -2 -70z"/>
<path d="M782 1264 c36 -207 70 -302 81 -228 6 36 4 69 -3 74 -7 4 -25 58 -40
120 -33 138 -60 162 -38 34z"/>
<path d="M5900 1210 c0 -29 -22 -38 -75 -31 -14 1 -25 -7 -25 -19 0 -12 9 -17
20 -10 31 19 23 -22 -9 -49 -17 -14 -29 -31 -28 -38 6 -48 -7 -83 -33 -83 -16
0 -30 -13 -30 -28 0 -34 -108 -152 -139 -152 -13 0 -17 11 -9 25 8 14 7 18 -3
9 -29 -26 -27 -72 3 -60 21 8 28 -8 28 -62 0 -40 -9 -72 -20 -72 -11 0 -20
-13 -20 -30 0 -16 8 -30 19 -30 26 0 81 82 81 121 0 17 20 53 45 80 25 26 46
53 48 59 17 67 37 98 69 106 22 6 38 28 38 51 0 23 23 74 50 115 57 84 64 128
20 128 -16 0 -30 -13 -30 -30z"/>
<path d="M4771 1142 c-6 -11 -2 -25 9 -32 11 -7 16 -21 9 -31 -6 -10 5 -13 25
-5 31 12 32 9 10 -19 -23 -28 -21 -30 16 -21 28 8 36 18 23 31 -11 11 -14 35
-8 52 11 30 9 30 -25 3 -21 -16 -31 -19 -24 -6 8 13 6 29 -4 35 -11 6 -25 3
-31 -7z"/>
<path d="M3135 1102 c2 -5 -5 -20 -16 -33 -15 -18 -14 -29 0 -39 14 -8 8 -32
-19 -69 -43 -61 -50 -114 -22 -159 17 -27 56 44 46 83 -2 8 5 15 16 15 11 0
20 22 20 49 0 26 14 62 31 80 21 20 24 31 8 31 -14 0 -35 11 -47 25 -12 14
-20 22 -17 17z"/>
<path d="M4499 955 c-18 -59 -15 -97 6 -90 31 10 46 95 16 95 -11 0 -22 -2
-22 -5z"/>
<path d="M860 877 c0 -27 -10 -59 -21 -70 -15 -15 -10 -25 18 -32 36 -9 39 -3
29 62 -14 89 -26 107 -26 40z"/>
<path d="M5100 880 c-19 -13 -23 -26 -10 -35 25 -19 35 -65 15 -65 -35 0 -72
-123 -43 -141 15 -10 35 -10 45 0 16 16 43 261 29 261 -3 0 -19 -9 -36 -20z"/>
<path d="M5968 810 c-13 -22 -19 -50 -14 -63 4 -13 -24 -34 -62 -47 -39 -12
-70 -29 -69 -36 7 -54 -10 -85 -54 -96 -55 -14 -56 -54 -2 -64 23 -5 29 3 21
25 -10 24 -4 28 25 18 20 -7 31 -7 23 2 -14 16 100 140 142 154 16 5 23 35 19
78 -6 62 -9 65 -29 29z"/>
<path d="M0 393 c0 -259 7 -393 21 -393 21 0 10 756 -11 777 -6 5 -10 -167
-10 -384z"/>
<path d="M3603 635 c-2 -41 6 -75 17 -75 11 0 20 -25 21 -55 0 -47 3 -50 21
-20 23 39 5 122 -22 105 -10 -6 -21 19 -26 55 -8 64 -8 64 -11 -10z"/>
<path d="M3052 609 c-13 -36 5 -89 31 -89 11 0 14 8 8 19 -6 10 -3 24 9 31 29
18 25 44 -8 57 -16 6 -34 -2 -40 -18z"/>
<path d="M5513 480 c9 -47 5 -60 -20 -60 -22 0 -34 -18 -35 -55 -1 -61 -8
-101 -25 -158 -14 -43 17 -104 41 -79 9 10 5 22 -9 26 -14 5 -19 20 -10 33 8
13 15 28 16 33 16 109 36 180 51 180 25 0 56 83 43 115 -21 55 -64 26 -52 -35z"/>
<path d="M940 471 c0 -15 -19 -34 -43 -42 -39 -12 -40 -16 -10 -32 39 -22 44
-70 8 -83 -14 -4 -9 -6 10 -3 19 3 35 -3 35 -13 0 -10 9 -18 20 -18 12 0 12
18 0 50 -10 27 -14 77 -7 110 7 33 6 60 0 60 -7 0 -13 -13 -13 -29z"/>
<path d="M2680 483 c0 -9 -18 -38 -40 -63 -22 -25 -40 -56 -39 -68 0 -12 14
-4 30 18 16 22 43 56 59 75 35 42 37 55 10 55 -11 0 -20 -8 -20 -17z"/>
<path d="M3040 459 c0 -23 -9 -36 -20 -29 -11 7 -20 4 -20 -7 0 -11 -5 -36
-12 -56 -7 -23 8 -14 40 23 53 62 67 110 32 110 -11 0 -20 -19 -20 -41z"/>
<path d="M3596 450 c-7 -8 -8 -27 -2 -42 6 -16 -1 -42 -14 -58 -30 -36 -9
-107 22 -76 11 11 18 59 14 105 -3 47 -12 79 -20 71z"/>
<path d="M5860 359 c28 -52 26 -59 -25 -61 -37 -1 -35 -5 15 -20 33 -10 83
-13 110 -6 l50 13 -45 20 c-25 12 -45 32 -45 46 0 13 -18 29 -40 35 -33 8 -36
4 -20 -27z"/>
<path d="M5830 240 c7 -11 -8 -20 -35 -20 -26 0 -58 -11 -71 -24 -62 -62 15
-89 84 -29 53 45 69 93 31 93 -12 0 -16 -9 -9 -20z"/>
</g>
</svg>
